<?xml version="1.0" standalone="no"?>
<!DOCTYPE svg PUBLIC "-//W3C//DTD SVG 20010904//EN"
 "http://www.w3.org/TR/2001/REC-SVG-20010904/DTD/svg10.dtd">
<svg version="1.0" xmlns="http://www.w3.org/2000/svg"
 width="2500.000000pt" height="2500.000000pt" viewBox="0 0 2500.000000 2500.000000"
 preserveAspectRatio="xMidYMid meet">

<g transform="translate(0.000000,2500.000000) scale(0.100000,-0.100000)"
fill="#000000" stroke="none">
<path d="M17257 23879 c-24 -14 -44 -56 -52 -114 -10 -69 -102 -342 -190 -565
-258 -657 -584 -1242 -1003 -1799 -137 -183 -292 -375 -327 -406 -12 -11 -26
-30 -30 -42 -9 -30 9 -30 81 2 31 14 84 32 118 41 34 8 123 35 199 60 130 42
290 74 303 61 19 -19 -389 -529 -633 -792 -609 -657 -1327 -1166 -2098 -1489
-192 -81 -210 -97 -250 -217 -144 -438 -354 -800 -628 -1086 -154 -161 -140
-176 83 -85 672 275 1351 646 1816 993 77 58 166 120 198 138 50 29 63 33 105
27 26 -3 104 -11 175 -16 70 -5 206 -21 303 -35 96 -15 182 -24 190 -21 8 3
12 2 9 -3 -3 -5 18 -12 47 -15 91 -12 494 -95 690 -143 156 -37 191 -43 199
-32 8 11 9 11 5 -2 -4 -12 29 -25 167 -63 453 -128 960 -313 1411 -516 219
-98 657 -317 847 -423 89 -50 163 -85 169 -81 7 4 9 3 6 -3 -4 -6 40 -38 101
-74 151 -89 415 -257 560 -356 69 -47 127 -81 134 -77 6 4 8 3 5 -3 -9 -14
202 -167 228 -165 12 1 15 -2 8 -6 -8 -5 29 -39 100 -92 150 -114 425 -339
626 -513 90 -78 167 -141 172 -139 5 1 8 -2 7 -7 -4 -15 234 -231 246 -224 6
3 8 3 4 -2 -4 -4 66 -85 156 -179 196 -206 228 -241 340 -376 49 -58 93 -104
98 -102 5 1 7 -1 4 -6 -3 -5 6 -24 19 -42 14 -19 23 -35 21 -38 -11 -10 -151
81 -261 168 -602 480 -1214 885 -1870 1240 -104 56 -217 120 -250 140 -81 50
-180 100 -299 149 -54 23 -100 41 -102 41 -9 0 49 -118 77 -154 77 -104 257
-431 244 -444 -1 -2 -74 33 -161 76 -684 342 -1453 599 -2239 748 -478 90
-1046 148 -1130 115 -26 -11 -3 -16 255 -65 857 -162 1735 -503 2490 -966 335
-206 621 -398 748 -503 643 -529 1076 -978 1471 -1522 55 -77 112 -152 125
-167 13 -16 22 -28 20 -28 -3 0 17 -33 44 -72 27 -40 77 -118 112 -173 34 -55
67 -103 74 -107 6 -4 8 -8 3 -8 -8 0 41 -82 55 -91 5 -3 9 -9 8 -13 -1 -4 25
-55 58 -114 33 -59 80 -144 104 -189 25 -46 48 -80 53 -75 4 4 5 2 1 -5 -4 -7
16 -57 44 -113 28 -55 80 -167 116 -248 37 -81 69 -151 72 -157 4 -5 7 -14 8
-20 1 -5 31 -84 67 -175 278 -707 455 -1513 503 -2286 5 -89 10 -113 23 -121
16 -10 21 3 50 120 77 312 205 988 200 1052 -1 11 1 27 4 35 14 35 58 469 79
780 16 241 16 973 0 1210 -37 546 -102 1032 -198 1490 -20 96 -39 187 -42 203
-2 15 -9 27 -14 27 -5 0 -6 4 -3 10 13 21 -132 558 -242 895 -58 179 -196 555
-234 640 -12 28 -23 52 -24 55 -29 111 -390 874 -408 863 -6 -3 -7 -1 -3 5 8
13 -13 62 -27 62 -6 0 -8 3 -4 6 10 11 -23 65 -35 58 -7 -4 -8 -3 -4 5 9 14
-132 273 -145 265 -5 -3 -7 1 -4 8 6 16 -180 324 -194 321 -6 -2 -8 3 -5 10
11 29 -517 784 -538 771 -6 -4 -8 -2 -5 3 14 22 -426 559 -446 546 -6 -3 -7
-2 -4 4 7 11 -130 169 -143 166 -6 -2 -9 3 -7 10 1 6 -4 11 -11 9 -8 -1 -11 1
-8 6 8 13 -294 323 -306 315 -6 -3 -8 -2 -5 4 3 5 -37 52 -89 104 -51 51 -94
90 -94 86 0 -4 -14 9 -32 28 -78 90 -473 427 -743 636 -270 208 -609 444 -625
434 -5 -3 -12 0 -16 6 -4 8 -3 9 4 5 7 -4 12 -5 12 -2 0 5 -232 154 -311 199
-25 15 -49 25 -52 22 -4 -3 -5 -2 -2 2 8 10 -156 103 -168 96 -6 -3 -7 -2 -4
4 10 16 -576 328 -601 318 -7 -2 -10 -1 -7 4 3 5 -4 12 -15 16 -30 9 -26 39
36 287 133 535 214 1055 243 1563 15 256 20 415 13 415 -4 0 -15 -5 -25 -11z
m-907 -5443 c0 -2 -8 -10 -17 -17 -16 -13 -17 -12 -4 4 13 16 21 21 21 13z
m1651 -573 c13 -16 12 -17 -3 -4 -17 13 -22 21 -14 21 2 0 10 -8 17 -17z
m3292 -288 c-3 -9 -8 -14 -10 -11 -3 3 -2 9 2 15 9 16 15 13 8 -4z m497 -825
c0 -5 -2 -10 -4 -10 -3 0 -8 5 -11 10 -3 6 -1 10 4 10 6 0 11 -4 11 -10z m970
-3614 c0 -2 -8 -10 -17 -17 -16 -13 -17 -12 -4 4 13 16 21 21 21 13z"/>
<path d="M12309 18901 c-67 -72 -250 -181 -544 -327 -204 -100 -340 -161 -460
-203 -311 -109 -650 -248 -850 -348 -96 -49 -228 -130 -233 -144 -2 -5 -10 -9
-17 -9 -21 0 -179 -160 -225 -229 -108 -161 -141 -306 -99 -438 l11 -33 161 0
c192 0 483 29 659 64 324 66 633 208 893 411 99 77 281 264 357 366 161 215
316 539 368 769 7 30 19 65 27 78 15 25 14 74 -2 78 -5 2 -26 -14 -46 -35z
m-1085 -917 c3 -8 2 -12 -4 -9 -6 3 -10 10 -10 16 0 14 7 11 14 -7z"/>
<path d="M11490 15664 c1 -14 22 -29 77 -54 189 -86 491 -273 811 -503 247
-176 591 -528 798 -817 32 -45 65 -91 73 -101 17 -24 1 -69 -25 -69 -8 0 -111
22 -228 50 -117 27 -228 52 -246 55 -18 3 -37 8 -41 10 -10 7 -357 79 -549
114 -1032 191 -2108 230 -3045 111 -511 -65 -1030 -183 -1495 -339 -534 -180
-1059 -445 -1625 -821 -88 -58 -186 -121 -218 -140 -63 -38 -145 -112 -191
-173 l-29 -38 21 -15 c12 -8 59 -61 104 -117 106 -133 318 -344 438 -437 213
-165 439 -295 675 -388 215 -85 510 -169 740 -211 106 -19 503 -56 512 -47 2
2 -12 26 -31 54 -32 44 -65 111 -157 324 -46 104 -56 202 -35 317 22 119 53
186 124 262 127 137 291 223 612 318 535 160 1126 228 1738 202 503 -22 728
-56 1332 -206 544 -135 923 -265 1240 -426 205 -104 251 -136 360 -254 419
-451 641 -904 722 -1470 19 -133 16 -475 -5 -610 -47 -305 -152 -609 -303
-880 -315 -560 -781 -1050 -1371 -1438 -269 -177 -647 -379 -936 -501 -1241
-525 -2677 -636 -3987 -311 -447 111 -865 267 -1299 484 -1120 561 -2054 1401
-2861 2575 -413 600 -985 1677 -1087 2046 l-18 65 -7 -40 c-19 -109 -6 -564
28 -930 166 -1830 877 -3690 1977 -5168 338 -455 698 -859 1147 -1286 107
-103 231 -223 275 -267 44 -45 106 -98 138 -119 33 -20 91 -66 130 -103 253
-232 734 -582 1202 -875 863 -539 1816 -953 2794 -1212 1507 -401 3144 -461
4736 -174 1229 221 2291 660 3140 1298 366 275 622 496 713 616 26 33 96 110
157 170 196 196 379 443 607 820 492 813 766 1650 854 2605 21 225 24 781 6
1005 -132 1600 -700 3042 -1657 4210 -543 663 -1243 1270 -1987 1723 -943 575
-2019 935 -3183 1067 -364 41 -490 47 -1077 52 -568 5 -588 5 -588 -13z"/>
<path d="M6329 15447 c-102 -35 -174 -84 -285 -192 -108 -106 -191 -222 -246
-342 -36 -80 -103 -284 -113 -345 l-7 -43 55 60 c30 33 51 62 46 63 -15 6 -10
28 11 55 11 14 20 33 20 44 1 17 1 17 16 -2 13 -18 14 -17 8 15 -4 27 -3 32 6
20 9 -12 10 -11 8 7 -2 12 0 22 5 23 21 1 25 -2 29 -25 3 -14 2 -25 -2 -25 -4
0 -13 -11 -20 -25 -7 -13 -17 -22 -22 -19 -4 3 -8 -2 -8 -10 0 -8 -5 -18 -12
-22 -8 -5 -9 -2 -5 9 3 10 2 17 -3 17 -12 0 -13 -27 -1 -34 5 -3 24 11 43 32
18 20 49 49 67 65 22 18 27 27 16 27 -9 0 -13 5 -10 10 3 6 -1 10 -11 10 -14
0 -14 -3 -4 -15 10 -12 10 -19 2 -27 -9 -9 -12 -9 -12 0 0 7 -9 21 -20 32 -18
18 -19 24 -8 43 7 12 11 25 10 29 -1 4 6 4 15 1 11 -4 14 -3 9 5 -4 7 -4 12 1
12 4 0 16 14 25 30 9 17 22 30 28 30 6 0 8 -4 5 -10 -3 -5 -1 -10 5 -10 6 0 8
10 4 25 -5 19 -2 25 11 25 9 0 13 5 10 10 -3 6 1 10 10 10 9 0 13 5 10 10 -11
18 21 11 45 -10 l23 -20 -23 -20 c-21 -18 -21 -20 -6 -36 9 -9 20 -13 24 -10
3 4 0 11 -8 16 -12 7 -11 12 8 28 28 24 29 52 2 52 -11 0 -20 5 -20 10 0 6 -7
10 -15 10 -8 0 -15 5 -15 11 0 5 4 8 8 5 5 -3 19 4 31 15 13 12 29 18 38 15
14 -6 14 -4 2 11 -13 15 -12 16 9 11 15 -4 22 -2 22 8 0 14 57 55 75 53 6 0 4
-3 -2 -6 -7 -2 -13 -9 -13 -15 0 -6 6 -6 15 2 8 7 15 18 15 25 0 16 28 28 42
18 6 -3 8 -1 5 4 -11 17 58 31 169 36 30 2 52 -2 51 -7 -1 -5 7 -12 17 -14 18
-4 55 -32 42 -32 -3 0 1 -12 9 -26 7 -15 11 -33 8 -40 -3 -8 -1 -14 5 -14 5 0
10 -37 11 -82 1 -45 4 -84 6 -86 2 -2 0 -15 -5 -28 -6 -14 -6 -26 0 -29 15 -9
-7 -45 -23 -39 -17 6 -50 62 -43 72 3 5 0 9 -7 9 -7 0 -20 4 -29 8 -9 4 -2
-10 17 -30 19 -20 38 -47 41 -61 3 -13 11 -21 16 -18 6 4 8 -2 4 -17 -5 -16 2
-10 19 16 14 22 24 47 23 55 -1 8 7 33 19 55 43 83 58 147 58 245 -1 52 -6
113 -14 135 -48 146 -176 199 -342 142z"/>
<path d="M6360 15200 c0 -11 5 -20 10 -20 6 0 10 9 10 20 0 11 -4 20 -10 20
-5 0 -10 -9 -10 -20z"/>
<path d="M6295 15150 c3 -5 10 -10 16 -10 5 0 9 5 9 10 0 6 -7 10 -16 10 -8 0
-12 -4 -9 -10z"/>
<path d="M6365 15150 c3 -5 8 -10 11 -10 2 0 4 5 4 10 0 6 -5 10 -11 10 -5 0
-7 -4 -4 -10z"/>
<path d="M6491 15144 c-18 -21 -6 -30 14 -11 8 9 15 18 15 21 0 11 -15 5 -29
-10z"/>
<path d="M6280 15110 c0 -5 5 -10 10 -10 6 0 10 5 10 10 0 6 -4 10 -10 10 -5
0 -10 -4 -10 -10z"/>
<path d="M6260 15070 c0 -5 5 -10 10 -10 6 0 10 5 10 10 0 6 -4 10 -10 10 -5
0 -10 -4 -10 -10z"/>
<path d="M6500 15070 c0 -5 9 -10 20 -10 11 0 20 5 20 10 0 6 -9 10 -20 10
-11 0 -20 -4 -20 -10z"/>
<path d="M6430 15050 c0 -5 5 -10 10 -10 6 0 10 5 10 10 0 6 -4 10 -10 10 -5
0 -10 -4 -10 -10z"/>
<path d="M6358 15033 c7 -3 16 -2 19 1 4 3 -2 6 -13 5 -11 0 -14 -3 -6 -6z"/>
<path d="M6492 15004 c-11 -12 -10 -17 3 -30 9 -9 19 -13 23 -10 3 4 0 12 -8
17 -11 8 -12 12 -2 16 13 5 17 23 5 23 -5 -1 -14 -7 -21 -16z"/>
<path d="M6540 15010 c0 -5 5 -10 10 -10 6 0 10 5 10 10 0 6 -4 10 -10 10 -5
0 -10 -4 -10 -10z"/>
<path d="M6364 14988 c-4 -7 -4 -10 1 -6 4 4 16 3 26 -3 11 -5 19 -7 19 -5 0
3 -9 10 -19 16 -15 7 -22 7 -27 -2z"/>
<path d="M6250 14968 c0 -4 8 -8 18 -8 11 0 13 -3 5 -8 -7 -4 19 -6 57 -4 38
2 83 -1 100 -6 16 -6 30 -8 30 -4 0 17 -40 27 -97 26 -35 -1 -61 2 -58 6 3 5
-8 8 -25 8 -16 -1 -30 -5 -30 -10z"/>
<path d="M6540 14970 c0 -5 5 -10 10 -10 6 0 10 5 10 10 0 6 -4 10 -10 10 -5
0 -10 -4 -10 -10z"/>
<path d="M6165 14950 c3 -5 8 -10 11 -10 2 0 4 5 4 10 0 6 -5 10 -11 10 -5 0
-7 -4 -4 -10z"/>
<path d="M6188 14936 c-16 -5 -28 -13 -28 -17 0 -9 39 1 45 12 3 4 12 6 19 3
8 -3 17 -1 20 5 8 12 -19 11 -56 -3z"/>
<path d="M6128 14913 c-10 -2 -18 -8 -18 -13 0 -4 9 -6 20 -3 11 3 20 9 20 14
0 5 -1 8 -2 8 -2 -1 -11 -3 -20 -6z"/>
<path d="M6562 14900 c0 -14 2 -19 5 -12 2 6 2 18 0 25 -3 6 -5 1 -5 -13z"/>
<path d="M5930 14891 c0 -6 4 -13 10 -16 6 -3 7 1 4 9 -7 18 -14 21 -14 7z"/>
<path d="M6061 14878 c-27 -18 -34 -19 -42 -7 -7 11 -9 11 -9 1 0 -7 -12 -24
-26 -37 -36 -34 -27 -31 41 10 32 19 62 36 69 38 6 2 9 7 6 10 -3 3 -20 -4
-39 -15z"/>
<path d="M5886 14845 c4 -8 8 -15 10 -15 2 0 4 7 4 15 0 8 -4 15 -10 15 -5 0
-7 -7 -4 -15z"/>
<path d="M5970 14850 c0 -5 5 -10 10 -10 6 0 10 5 10 10 0 6 -4 10 -10 10 -5
0 -10 -4 -10 -10z"/>
</g>
</svg>
